fd_2_states
version=1
nRows=27
nColumns=17
inDegrees=yes

# SIMM Motion File Header:
name fd_2_states
datacolumns 17
datarows 27
otherdata 1
range 0.030000 0.070432
endheader
time	/jointset/r_shoulder/r_shoulder_elev/value	/jointset/r_shoulder/r_shoulder_elev/speed	/jointset/r_elbow/r_elbow_flex/value	/jointset/r_elbow/r_elbow_flex/speed	/forceset/TRIlong/activation	/forceset/TRIlong/fiber_length	/forceset/TRIlat/activation	/forceset/TRIlat/fiber_length	/forceset/TRImed/activation	/forceset/TRImed/fiber_length	/forceset/BIClong/activation	/forceset/BIClong/fiber_length	/forceset/BICshort/activation	/forceset/BICshort/fiber_length	/forceset/BRA/activation	/forceset/BRA/fiber_length
      0.030000	      0.000000	      0.000000	      4.200010	    140.000003	      0.028970	      0.137756	      0.020000	      0.071844	      0.020000	      0.066908	      0.020000	      0.147824	      0.020000	      0.147170	      0.046610	      0.092316
      0.030194	      0.000000	      0.000244	      4.227104	    139.999635	      0.028950	      0.137766	      0.020000	      0.071854	      0.020000	      0.066918	      0.020067	      0.147819	      0.020831	      0.147164	      0.046576	      0.092309
      0.030387	      0.000000	      0.000574	      4.254197	    139.998913	      0.028927	      0.137776	      0.020000	      0.071864	      0.020000	      0.066928	      0.020145	      0.147814	      0.021793	      0.147158	      0.046536	      0.092302
      0.031289	      0.000002	      0.002838	      4.380451	    139.992579	      0.028818	      0.137823	      0.020000	      0.071910	      0.020000	      0.066974	      0.020472	      0.147789	      0.025814	      0.147120	      0.046350	      0.092270
      0.034116	      0.000019	      0.008367	      4.776144	    139.976553	      0.028486	      0.137974	      0.020000	      0.072056	      0.020000	      0.067119	      0.021201	      0.147709	      0.034678	      0.146961	      0.045785	      0.092171
      0.036942	      0.000041	      0.005273	      5.171832	    139.990320	      0.028167	      0.138127	      0.020000	      0.072202	      0.020000	      0.067265	      0.021628	      0.147627	      0.039885	      0.146800	      0.045242	      0.092073
      0.039170	      0.000045	     -0.001561	      5.483688	    140.016183	      0.027924	      0.138248	      0.020000	      0.072318	      0.020000	      0.067380	      0.021837	      0.147563	      0.042458	      0.146683	      0.044830	      0.091996
      0.040143	      0.000042	     -0.004909	      5.619933	    140.028567	      0.027820	      0.138301	      0.020000	      0.072369	      0.020000	      0.067430	      0.022005	      0.147535	      0.043157	      0.146635	      0.044667	      0.091963
      0.040839	      0.000038	     -0.007476	      5.717435	    140.037710	      0.027747	      0.138339	      0.020000	      0.072406	      0.020000	      0.067467	      0.022813	      0.147514	      0.043025	      0.146603	      0.044648	      0.091938
      0.041535	      0.000032	     -0.010359	      5.814944	    140.047719	      0.027674	      0.138377	      0.020000	      0.072442	      0.020000	      0.067503	      0.023589	      0.147492	      0.042878	      0.146572	      0.044638	      0.091914
      0.043971	     -0.000008	     -0.022687	      6.156043	    140.090587	      0.027425	      0.138510	      0.020000	      0.072570	      0.020000	      0.067630	      0.025624	      0.147408	      0.042376	      0.146476	      0.044606	      0.091829
      0.047242	     -0.000110	     -0.039915	      6.614486	    140.150356	      0.027104	      0.138689	      0.020000	      0.072742	      0.020000	      0.067802	      0.027237	      0.147298	      0.041729	      0.146362	      0.044564	      0.091715
      0.049087	     -0.000190	     -0.046509	      6.872976	    140.171563	      0.026929	      0.138791	      0.020000	      0.072840	      0.020000	      0.067899	      0.027796	      0.147237	      0.041377	      0.146302	      0.044542	      0.091650
      0.050119	     -0.000240	     -0.048655	      7.017699	    140.177057	      0.026833	      0.138847	      0.020000	      0.072895	      0.020000	      0.067954	      0.028197	      0.147203	      0.041207	      0.146269	      0.044515	      0.091614
      0.050532	     -0.000260	     -0.049204	      7.075542	    140.177927	      0.026795	      0.138870	      0.020000	      0.072917	      0.020000	      0.067976	      0.028937	      0.147189	      0.041451	      0.146256	      0.044447	      0.091599
      0.050944	     -0.000280	     -0.049648	      7.133384	    140.178349	      0.026757	      0.138893	      0.020000	      0.072939	      0.020000	      0.067998	      0.029678	      0.147174	      0.041728	      0.146243	      0.044375	      0.091585
      0.053008	     -0.000384	     -0.051210	      7.422598	    140.178772	      0.026572	      0.139007	      0.020000	      0.073049	      0.020000	      0.068107	      0.032631	      0.147096	      0.042847	      0.146173	      0.044018	      0.091514
      0.056458	     -0.000564	     -0.053392	      7.906342	    140.182749	      0.026273	      0.139197	      0.020000	      0.073234	      0.020000	      0.068291	      0.035629	      0.146963	      0.044003	      0.146050	      0.043446	      0.091395
      0.058995	     -0.000698	     -0.051697	      8.261942	    140.175653	      0.026062	      0.139338	      0.020000	      0.073371	      0.020000	      0.068428	      0.036894	      0.146870	      0.044499	      0.145958	      0.043043	      0.091308
      0.059894	     -0.000744	     -0.050741	      8.387908	    140.171000	      0.025989	      0.139388	      0.020000	      0.073419	      0.020000	      0.068476	      0.037220	      0.146837	      0.044628	      0.145926	      0.042904	      0.091278
      0.060273	     -0.000763	     -0.050078	      8.441123	    140.168029	      0.025958	      0.139409	      0.020000	      0.073440	      0.020000	      0.068496	      0.037649	      0.146823	      0.044798	      0.145912	      0.042882	      0.091265
      0.060653	     -0.000782	     -0.049262	      8.494336	    140.164501	      0.025928	      0.139430	      0.020000	      0.073460	      0.020000	      0.068516	      0.038469	      0.146809	      0.045125	      0.145898	      0.042944	      0.091252
      0.062551	     -0.000872	     -0.046264	      8.760385	    140.150347	      0.025778	      0.139536	      0.020000	      0.073563	      0.020000	      0.068618	      0.041810	      0.146733	      0.046467	      0.145826	      0.043197	      0.091186
      0.065753	     -0.001031	     -0.057851	      9.209054	    140.181328	      0.025535	      0.139714	      0.020000	      0.073736	      0.020000	      0.068791	      0.045391	      0.146601	      0.047920	      0.145701	      0.043471	      0.091074
      0.068954	     -0.001266	     -0.091267	      9.657944	    140.280242	      0.025301	      0.139893	      0.020000	      0.073911	      0.020000	      0.068966	      0.047414	      0.146473	      0.048747	      0.145575	      0.043626	      0.090962
      0.070045	     -0.001375	     -0.107735	      9.811046	    140.328001	      0.025224	      0.139954	      0.020000	      0.073970	      0.020000	      0.069024	      0.047966	      0.146430	      0.048898	      0.145532	      0.043648	      0.090924
      0.070432	     -0.001417	     -0.113823	      9.865368	    140.345451	      0.025197	      0.139976	      0.020000	      0.073992	      0.020000	      0.069045	      0.048827	      0.146415	      0.048779	      0.145517	      0.043574	      0.090911
